<svg xmlns="http://www.w3.org/2000/svg" viewBox="0 0 64 64"><title>icon-search</title><path d="M61.89,53.3l-13.61-11A26.59,26.59,0,0,0,26.7,0,26.63,26.63,0,1,0,42.23,48.26L53.3,61.86l.08.08A6.68,6.68,0,0,0,58,64a4.54,4.54,0,0,0,3.29-1.34l1.43-1.43C64.7,59.19,64.38,55.73,61.89,53.3ZM41.54,41.49a21.09,21.09,0,0,1-29.77,0A21,21,0,0,1,26.65,5.66,21,21,0,0,1,41.54,41.49Z" style="fill:#a12337"/><path d="M29.08,42.2h-.15A18.06,18.06,0,0,1,10.67,24v-.13c0-.08,0-.16,0-.25a18.48,18.48,0,0,1,.94-5.8A17.1,17.1,0,0,0,35.2,41.25a18.61,18.61,0,0,1-5.87,1Z" style="fill:#a12337"/></svg>