<svg xmlns="http://www.w3.org/2000/svg" viewBox="0 0 623 67.2"><path d="M588.8,62.6V51h4.5c0,10.4,5.1,11.5,10.4,11.5s11.6-1.8,11.6-7.4-7.1-6.6-12.6-8.1-12.4-2.8-12.4-9.9c0-9.7,8.6-13,17.4-13,3.7,0,9.6.6,12.9,2.2V36.7H616c-.6-6.4-2-9.7-9.6-9.7-6.8.3-9.2,2.7-9.2,7.7,0,2.2,2.9,4.6,6.1,5.7,7.3,2.3,19.1,2.9,19.1,12.9,0,11-12.5,13.6-21.9,12.9A23.28,23.28,0,0,1,588.8,62.6Z" style="fill:#a2a4a7"/><path d="M570.2,60.7c-2.7,3.5-7.4,5.7-15.8,5.7-7.8,0-14.6-3.6-14.6-12.2V33.8c0-4.6.5-5.9-5.5-6.1h-1.5V25.1h14.9V51.8c0,6.9,1.8,11,10,11,10.1,0,12.4-7.4,12.4-15.5V33.8c0-4.8-.3-6.1-7.3-6.1V25.1H578V56.9c0,4.2-.5,5.6,3.9,6a28.18,28.18,0,0,0,3.1.1v2.8c-2.7-.1-5.2-.1-7.8-.2-2.3.1-4.7.1-7,.2Z" style="fill:#a2a4a7"/><path d="M375.7,56.8c0,4.6-.2,5.9,5.7,6.1h1.5v2.8c-3.7-.1-7.5-.2-11.3-.2s-7.6.1-11.3.2V62.9h2.2c5.3-.2,5-1.6,5-6V10.6c0-5.3-.2-5.6-6-6.1l-1.2-.1V1.7h15.4Z" style="fill:#a2a4a7"/><path d="M453.8,52.8V63c-5.7,2.7-10.9,3.4-17.3,3.4-16.2,0-20.5-7.2-20.5-21.3,0-13.8,5.4-20.9,21-20.9,4.6,0,13.3.8,16.8,4v9.2H449c-.7-4.2.5-10.4-10.8-10.4-12.6,0-13.8,8.5-13.8,18.1s1.1,18.5,13.9,18.5c10.4,0,9.9-4.3,10.8-10.8Z" style="fill:#a2a4a7"/><path d="M531.3,45.2c0,13.2-5.1,21.1-21.3,21.1s-21.3-7.9-21.3-21.1c0-14.4,6.7-21.1,21.3-21.1S531.3,30.9,531.3,45.2Zm-34.2,0c0,9,.6,18.2,12.9,18.2s12.9-9.2,12.9-18.2-.6-18.1-12.9-18.1-12.9,9.3-12.9,18.1Z" style="fill:#a2a4a7"/><path d="M405,56.8c0,4.6-.2,5.9,5.7,6.1h1.5v2.8c-3.7-.1-7.5-.2-11.3-.2s-7.6.1-11.3.2V62.9h2.2c5.3-.2,5-1.6,5-6v-23c0-5.3-.2-5.6-6-6.1l-1.2-.1V25H405ZM400.5,6.6a5.3,5.3,0,1,0,5.3,5.3h0A5.34,5.34,0,0,0,400.5,6.6Z" style="fill:#a2a4a7"/><path d="M476.9,56.8c0,4.6-.2,5.9,5.7,6.1h1.5v2.8c-3.7-.1-7.5-.2-11.3-.2s-7.6.1-11.3.2V62.9h2.2c5.3-.2,5-1.6,5-6v-23c0-5.3-.2-5.6-6-6.1l-1.2-.1V25h15.4ZM472.4,6.6a5.3,5.3,0,1,0,5.3,5.3h0A5.34,5.34,0,0,0,472.4,6.6Z" style="fill:#a2a4a7"/><path d="M96.5,37.4H101c.1-.6.1-1.2.2-1.8.4-4.1.8-6.5,3.9-6.5h18L93.8,62.9v2.7h39.8V52.8h-4.4c0,.7-.1,1.3-.1,1.9-.6,5.8-2.2,6.7-5.5,6.7H104l29.6-33.8V25H96.5Z" style="fill:#a41e21"/><path d="M15.4,40.4c-3.2-1-6.1-3.5-6.1-5.7,0-5,2.4-7.5,9.2-7.7,7.6,0,9,3.3,9.6,9.7h4.6V26.2C29.4,24.6,23.5,24,19.8,24,11,24,2.4,27.3,2.4,37c0,7,6.8,8.4,12.4,9.8s12.6,2.6,12.6,8.1-6.2,7.4-11.6,7.4c-5.2,0-10.4-1.1-10.4-11.5H.8V62.4a23.4,23.4,0,0,0,11.7,3.7c9.4.6,21.9-1.9,21.9-12.9C34.5,43.3,22.7,42.8,15.4,40.4Z" style="fill:#a41e21"/><path d="M83.3,56.7V25H68.1v2.6c7,0,7.3,1.3,7.3,6.1V47.2c0,8.1-2.3,15.5-12.4,15.5-8.3,0-10-4.2-10-11V25H38v2.6h1.5c6,.2,5.5,1.5,5.5,6.1V54.1c0,8.6,6.8,12.2,14.6,12.2,8.4,0,13.1-2.3,15.8-5.7v5c2.3-.1,4.7-.1,7-.2,2.6.1,5.1.1,7.8.2V62.8a29.12,29.12,0,0,1-3.1-.1C82.8,62.3,83.3,60.9,83.3,56.7Z" style="fill:#a41e21"/><path d="M273.5,56.8V25.1H258.3v2.6c7,0,7.3,1.3,7.3,6.1V47.3c0,8.1-2.3,15.5-12.4,15.5-8.3,0-10-4.2-10-11V25.1H228.3v2.6h1.4c6,.2,5.5,1.5,5.5,6.1V54.2c0,8.6,6.8,12.2,14.6,12.2,8.4,0,13.1-2.3,15.8-5.7v5c2.4-.1,4.7-.1,7-.2,2.6.1,5.1.1,7.8.2V63a29.12,29.12,0,0,1-3.1-.1C273,62.5,273.5,61,273.5,56.8Z" style="fill:#a41e21"/><path d="M308.9,24.2c-4.6,0-11.7,1.6-14.9,4.9V1.7H279.1V4.5l1.5.1c5.8.3,5.4,1,5.4,6.1V66.4l8.2-2.9c3.8,2.6,10.6,2.9,15,2.9,13.5,0,19.3-11.1,19.3-22.4C328.5,31.3,322.4,24.2,308.9,24.2ZM307,63c-10.2,0-13.2-6.6-13.2-15V40.8c0-7.7,4.9-13,13.7-13,10.9,0,13,7.4,13,18.3C320.5,56.1,316.7,63,307,63Z" style="fill:#a41e21"/><path d="M156.5,56.8V25.1H141.1v2.7l1.2.1c5.9.5,6.1.8,6.1,6.1V56.9c0,4.4.2,5.8-5,6h-2.2v2.8c3.7-.1,7.5-.2,11.3-.2s7.6.1,11.3.2V63h-1.5C156.3,62.7,156.5,61.4,156.5,56.8Z" style="fill:#a41e21"/><circle cx="152" cy="11.9" r="5.3" style="fill:#a41e21"/><path d="M218.7,23.9a16.23,16.23,0,0,0-13.6,5.3V25H190v2.6h.1l1.6.1a22.75,22.75,0,0,1,2.6.2c2.9.5,2.9,1.7,2.9,5.9V56.7c0,4.9,0,5.8-5.6,6.1l-1.6.1v2.8h.1c3.7-.1,7.5-.1,11.3-.2,3.8.1,7.6.1,12.1.2V62.9h-2.2c-.9,0-1.8-.1-2.8-.2-3.1-.5-3.1-2-3.1-5.9V39.2a37.51,37.51,0,0,1,.6-4,11.16,11.16,0,0,1,2.9-5.2,5.58,5.58,0,0,1,3.7-1.5c2.3,0,4.9,1.1,5.1,3.4s.5,4.6,3.5,4.6,4.3-1.5,4.7-3C226.6,30.7,226.2,24.8,218.7,23.9Z" style="fill:#a41e21"/><path d="M346.9,56.8V25.1H331.5v2.7l1.2.1c5.9.5,6.1.8,6.1,6.1V56.9c0,4.4.2,5.8-5,6h-2.2v2.8c3.7-.1,7.5-.2,11.3-.2s7.6.1,11.3.2V63h-1.5C346.7,62.7,346.9,61.4,346.9,56.8Z" style="fill:#a41e21"/><circle cx="342.4" cy="11.9" r="5.3" style="fill:#a41e21"/></svg>
